<svg xmlns="http://www.w3.org/2000/svg" viewBox="0 0 64 64" width="128" height="128">
  <rect x="2" y="2" width="60" height="60" rx="10" fill="#000" stroke="#1d2a78" stroke-width="2"/>
  <!-- maze walls -->
  <g fill="#1d2a78" stroke="#3a4ad8" stroke-width="0.6">
    <rect x="6"  y="6"  width="22" height="6"/>
    <rect x="36" y="6"  width="22" height="6"/>
    <rect x="6"  y="14" width="6"  height="14"/>
    <rect x="52" y="14" width="6"  height="14"/>
    <rect x="20" y="18" width="24" height="6"/>
    <rect x="20" y="38" width="24" height="6"/>
    <rect x="6"  y="36" width="6"  height="14"/>
    <rect x="52" y="36" width="6"  height="14"/>
    <rect x="6"  y="52" width="22" height="6"/>
    <rect x="36" y="52" width="22" height="6"/>
  </g>
  <!-- pellets -->
  <g fill="#fff8e0">
    <rect x="14" y="14" width="2" height="2"/>
    <rect x="20" y="14" width="2" height="2"/>
    <rect x="42" y="14" width="2" height="2"/>
    <rect x="48" y="14" width="2" height="2"/>
    <rect x="14" y="48" width="2" height="2"/>
    <rect x="20" y="48" width="2" height="2"/>
    <rect x="42" y="48" width="2" height="2"/>
    <rect x="48" y="48" width="2" height="2"/>
    <circle cx="9" cy="32" r="2.4"/>
    <circle cx="55" cy="32" r="2.4"/>
  </g>
  <!-- ghosts -->
  <g>
    <path d="M 18 30 a 5 5 0 0 1 10 0 v 5 l -2 -2 l -2 2 l -2 -2 l -2 2 l -2 -2 z" fill="#ff6b6b"/>
    <circle cx="21" cy="29" r="1.4" fill="#fff"/>
    <circle cx="25" cy="29" r="1.4" fill="#fff"/>
    <circle cx="21" cy="29" r="0.6" fill="#000"/>
    <circle cx="25" cy="29" r="0.6" fill="#000"/>
    <path d="M 36 30 a 5 5 0 0 1 10 0 v 5 l -2 -2 l -2 2 l -2 -2 l -2 2 l -2 -2 z" fill="#7df096"/>
    <circle cx="39" cy="29" r="1.4" fill="#fff"/>
    <circle cx="43" cy="29" r="1.4" fill="#fff"/>
    <circle cx="39" cy="29" r="0.6" fill="#000"/>
    <circle cx="43" cy="29" r="0.6" fill="#000"/>
  </g>
  <!-- pacman -->
  <path d="M 32 41 a 7 7 0 1 0 6.5 -4 L 32 41 Z" fill="#ffd166"/>
</svg>
