<svg xmlns="http://www.w3.org/2000/svg" viewBox="0 0 64 64" width="128" height="128">
  <rect x="2" y="2" width="60" height="60" rx="10" fill="#1c2230" stroke="#1a1f2e" stroke-width="2"/>
  <!-- 9x9 grid lines -->
  <g stroke="rgba(168,216,255,0.18)" stroke-width="0.4">
    <line x1="6"  y1="12" x2="58" y2="12"/>
    <line x1="6"  y1="18" x2="58" y2="18"/>
    <line x1="6"  y1="30" x2="58" y2="30"/>
    <line x1="6"  y1="36" x2="58" y2="36"/>
    <line x1="6"  y1="48" x2="58" y2="48"/>
    <line x1="6"  y1="54" x2="58" y2="54"/>
    <line x1="12" y1="6"  x2="12" y2="58"/>
    <line x1="18" y1="6"  x2="18" y2="58"/>
    <line x1="30" y1="6"  x2="30" y2="58"/>
    <line x1="36" y1="6"  x2="36" y2="58"/>
    <line x1="48" y1="6"  x2="48" y2="58"/>
    <line x1="54" y1="6"  x2="54" y2="58"/>
  </g>
  <!-- Heavy 3x3 block lines -->
  <g stroke="#1a1f2e" stroke-width="1.6">
    <line x1="24" y1="6" x2="24" y2="58"/>
    <line x1="42" y1="6" x2="42" y2="58"/>
    <line x1="6"  y1="24" x2="58" y2="24"/>
    <line x1="6"  y1="42" x2="58" y2="42"/>
  </g>
  <!-- Numbers (a sampling of givens) -->
  <g font-family="ui-monospace, monospace" font-size="6" font-weight="800" text-anchor="middle">
    <text x="9"  y="11" fill="#ffd166">5</text>
    <text x="21" y="11" fill="#ffd166">3</text>
    <text x="45" y="11" fill="#ffd166">7</text>
    <text x="9"  y="17" fill="#ffd166">6</text>
    <text x="33" y="17" fill="#ffd166">1</text>
    <text x="51" y="17" fill="#ffd166">5</text>
    <text x="15" y="23" fill="#a8d8ff">9</text>
    <text x="27" y="23" fill="#ffd166">8</text>
    <text x="9"  y="29" fill="#a8d8ff">8</text>
    <text x="51" y="29" fill="#a8d8ff">3</text>
    <text x="15" y="35" fill="#ffd166">4</text>
    <text x="33" y="35" fill="#ffd166">5</text>
    <text x="51" y="35" fill="#ffd166">7</text>
    <text x="9"  y="41" fill="#ffd166">7</text>
    <text x="27" y="41" fill="#ffd166">2</text>
    <text x="45" y="41" fill="#a8d8ff">6</text>
    <text x="21" y="47" fill="#a8d8ff">6</text>
    <text x="51" y="47" fill="#ffd166">2</text>
    <text x="9"  y="53" fill="#ffd166">1</text>
    <text x="33" y="53" fill="#ffd166">8</text>
    <text x="45" y="53" fill="#ffd166">9</text>
    <text x="15" y="58" fill="#ffd166">7</text>
    <text x="39" y="58" fill="#a8d8ff">5</text>
  </g>
</svg>
