<svg xmlns="http://www.w3.org/2000/svg" viewBox="0 0 64 64" width="128" height="128">
  <rect x="2" y="2" width="60" height="60" rx="10" fill="#1c2230" stroke="#2e3a55" stroke-width="2"/>
  <g font-family="ui-monospace, monospace" font-size="9" font-weight="900" text-anchor="middle" fill="#ffd166">
    <rect x="6"  y="6"  width="13" height="13" rx="1.6" fill="#2e3a55" stroke="rgba(168,216,255,0.2)"/>
    <text x="12.5" y="16">1</text>
    <rect x="20" y="6"  width="13" height="13" rx="1.6" fill="#2e3a55" stroke="rgba(168,216,255,0.2)"/>
    <text x="26.5" y="16">2</text>
    <rect x="34" y="6"  width="13" height="13" rx="1.6" fill="#2e3a55" stroke="rgba(168,216,255,0.2)"/>
    <text x="40.5" y="16">3</text>
    <rect x="48" y="6"  width="10" height="13" rx="1.6" fill="#2e3a55" stroke="rgba(168,216,255,0.2)"/>
    <text x="53"   y="16">4</text>

    <rect x="6"  y="20" width="13" height="13" rx="1.6" fill="#2e3a55" stroke="rgba(168,216,255,0.2)"/>
    <text x="12.5" y="30">5</text>
    <rect x="20" y="20" width="13" height="13" rx="1.6" fill="#3a4870" stroke="#a8d8ff"/>
    <text x="26.5" y="30">6</text>
    <rect x="34" y="20" width="13" height="13" rx="1.6" fill="#2e3a55" stroke="rgba(168,216,255,0.2)"/>
    <text x="40.5" y="30">7</text>
    <rect x="48" y="20" width="10" height="13" rx="1.6" fill="#2e3a55" stroke="rgba(168,216,255,0.2)"/>
    <text x="53"   y="30">8</text>

    <rect x="6"  y="34" width="13" height="13" rx="1.6" fill="#2e3a55" stroke="rgba(168,216,255,0.2)"/>
    <text x="12.5" y="44">9</text>
    <rect x="20" y="34" width="13" height="13" rx="1.6" fill="#2e3a55" stroke="rgba(168,216,255,0.2)"/>
    <text x="26.5" y="44">10</text>
    <rect x="34" y="34" width="13" height="13" rx="1.6" fill="#2e3a55" stroke="rgba(168,216,255,0.2)"/>
    <text x="40.5" y="44">11</text>
    <rect x="48" y="34" width="10" height="13" rx="1.6" fill="#2e3a55" stroke="rgba(168,216,255,0.2)"/>
    <text x="53"   y="44">12</text>

    <rect x="6"  y="48" width="13" height="10" rx="1.6" fill="#2e3a55" stroke="rgba(168,216,255,0.2)"/>
    <text x="12.5" y="56">13</text>
    <rect x="20" y="48" width="13" height="10" rx="1.6" fill="#2e3a55" stroke="rgba(168,216,255,0.2)"/>
    <text x="26.5" y="56">14</text>
    <rect x="34" y="48" width="13" height="10" rx="1.6" fill="#2e3a55" stroke="rgba(168,216,255,0.2)"/>
    <text x="40.5" y="56">15</text>
    <rect x="48" y="48" width="10" height="10" rx="1.6" fill="rgba(0,0,0,0.3)" stroke-dasharray="2 2" stroke="rgba(168,216,255,0.3)"/>
  </g>
</svg>
